<svg width="23" height="20" viewBox="0 0 23 20" fill="none" xmlns="http://www.w3.org/2000/svg">
<path d="M10.1606 19.9998C7.75321 19.9993 5.42423 19.1441 3.58846 17.5868C1.7527 16.0294 0.529364 13.871 0.136362 11.4959C-0.256639 9.12088 0.206212 6.68343 1.44247 4.61776C2.67873 2.55208 4.60813 0.992322 6.88698 0.216309L19.7826 13.1122C19.0982 15.1209 17.8024 16.8651 16.0768 18.1003C14.3512 19.3355 12.2824 19.9997 10.1603 19.9998H10.1606Z" fill="#F65423"/>
<path opacity="0.6" d="M9.25 0.54135C11.0469 -0.0680192 12.9785 -0.162468 14.8263 0.268683C16.6741 0.699834 18.3644 1.63939 19.7061 2.98109C21.0477 4.32279 21.9873 6.01312 22.4184 7.86094C22.8495 9.70875 22.755 11.6403 22.1456 13.4372L9.25 0.54135Z" fill="#F65423"/>
</svg>
