<svg width="102" height="42" viewBox="0 0 102 42" fill="none" xmlns="http://www.w3.org/2000/svg">
<path d="M17.7076 1.03223H25.9255C25.9255 1.03223 25.9255 18.9251 25.9255 22.6429C25.9255 26.3608 24.3398 34.1608 12.9398 34.1608C1.53976 34.1608 0.307617 26.8965 0.307617 22.8251V18.8394H8.25762C8.25762 18.8394 8.25762 20.3501 8.25762 22.7394C8.25762 25.1287 9.84333 27.3465 12.854 27.3465C15.854 27.3465 17.7183 25.6644 17.7183 22.8251V1.03223H17.7076Z" fill="#666666"/>
<path d="M17.7076 1.03223H25.9255C25.9255 1.03223 25.9255 18.9251 25.9255 22.6429C25.9255 26.3608 24.3398 34.1608 12.9398 34.1608C1.53976 34.1608 0.307617 26.8965 0.307617 22.8251V18.8394H8.25762C8.25762 18.8394 8.25762 20.3501 8.25762 22.7394C8.25762 25.1287 9.84333 27.3465 12.854 27.3465C15.854 27.3465 17.7183 25.6644 17.7183 22.8251V1.03223H17.7076Z" stroke="#666666" stroke-width="0.183107" stroke-miterlimit="3.864"/>
<path d="M43.24 19.3643C43.24 17.1465 42.0079 15.025 39.1793 15.025C36.4364 15.025 35.4722 16.975 35.4722 19.3643H43.24ZM38.6436 10.0643C45.0936 10.0643 50.7507 12.5393 50.7507 23.9715H35.4614C35.4614 27.6036 36.9614 29.1036 39.6186 29.1036C42.265 29.1036 43.1543 26.9822 43.1543 26.9822H50.665C50.665 30.2608 46.1543 34.6858 39.3507 34.6C31.5722 34.6 27.7793 28.8465 27.7793 22.9108C27.7793 16.975 31.1329 10.0643 38.6436 10.0643Z" fill="#666666"/>
<path d="M67.8074 19.3643C67.8074 17.1465 66.5753 15.025 63.7467 15.025C61.0038 15.025 60.0396 16.975 60.0396 19.3643H67.8074ZM63.211 10.0643C69.661 10.0643 75.3181 12.5393 75.3181 23.9715H60.0288C60.0288 27.6036 61.5288 29.1036 64.186 29.1036C66.8324 29.1036 67.7217 26.9822 67.7217 26.9822H75.2324C75.2324 30.2608 70.7217 34.6858 63.9181 34.6C56.1396 34.6 52.3467 28.8465 52.3467 22.9108C52.336 16.975 55.7003 10.0643 63.211 10.0643Z" fill="#666666"/>
<path d="M84.7578 22.6429C84.6721 27.1644 85.6364 29.5536 89.3542 29.5536C93.0614 29.5536 93.5971 25.4822 93.5971 22.3751C93.5971 19.2786 92.8899 16.2679 89.0006 16.2679C86.6114 16.2679 84.8435 18.1215 84.7578 22.6429ZM77.2471 41.5108V10.9536H84.8435C84.8435 10.9536 84.8435 13.6429 84.8435 14.4358C85.1221 13.8465 85.3149 13.4394 85.9042 12.7215C86.4185 12.1001 87.8435 10.3322 91.6471 10.3322C95.4506 10.3322 101.365 12.9894 101.365 22.3751C101.365 29.6394 97.8292 34.9536 91.7328 34.9536C88.3792 34.9536 86.8685 33.7858 85.9899 33.0894C85.4328 32.6501 85.2506 32.4465 84.9292 32.0286C84.9292 32.6501 84.9292 41.5108 84.9292 41.5108H77.2471Z" fill="#666666"/>
<path fill-rule="evenodd" clip-rule="evenodd" d="M99.1573 37.9645C99.468 37.9645 99.693 37.9966 99.843 38.0502C100.1 38.1573 100.229 38.3716 100.229 38.6823C100.229 38.9073 100.143 39.0681 99.9823 39.1752C99.8966 39.2288 99.7787 39.2716 99.618 39.2931C99.8109 39.3252 99.9609 39.4109 100.047 39.5395C100.132 39.6681 100.186 39.7966 100.186 39.9252V40.1073C100.186 40.1609 100.186 40.2252 100.197 40.2895C100.197 40.3538 100.207 40.3966 100.218 40.4181L100.229 40.4502H99.8216C99.8216 40.4395 99.8216 40.4288 99.8109 40.4288C99.8109 40.418 99.8109 40.4073 99.8001 40.3966L99.7894 40.3109V40.1395C99.7894 39.8502 99.7144 39.6573 99.5537 39.5609C99.4573 39.5073 99.2966 39.4752 99.0609 39.4752H98.718V40.4609H98.2787V37.9645H99.1573ZM99.6287 38.3609C99.5216 38.2966 99.3394 38.2645 99.1037 38.2645H98.7287V39.1752H99.1251C99.3073 39.1752 99.4466 39.1538 99.543 39.1216C99.7144 39.0573 99.8001 38.9181 99.8001 38.7359C99.7894 38.5431 99.7359 38.4252 99.6287 38.3609ZM100.807 40.8466C100.368 41.2966 99.8323 41.5216 99.2001 41.5216C98.568 41.5216 98.0323 41.2966 97.593 40.8466C97.1537 40.3966 96.9287 39.8609 96.9287 39.2288C96.9287 38.6073 97.1537 38.0716 97.593 37.6216C98.0323 37.1823 98.568 36.9573 99.1894 36.9573C99.8216 36.9573 100.357 37.1823 100.797 37.6216C101.236 38.0609 101.461 38.5966 101.461 39.2288C101.472 39.8609 101.257 40.3966 100.807 40.8466ZM97.818 37.8359C97.443 38.2216 97.2501 38.6823 97.2501 39.2181C97.2501 39.7645 97.443 40.2252 97.818 40.6109C98.193 40.9966 98.6537 41.1895 99.2001 41.1895C99.7466 41.1895 100.207 40.9966 100.582 40.6109C100.957 40.2252 101.15 39.7645 101.15 39.2181C101.15 38.6716 100.957 38.2109 100.582 37.8359C100.197 37.4502 99.7359 37.2573 99.2001 37.2573C98.6644 37.2573 98.2037 37.4502 97.818 37.8359Z" fill="#666666"/>
</svg>
