<svg width="32" height="32" viewBox="0 0 32 32" fill="none" xmlns="http://www.w3.org/2000/svg">
<path d="M2.66699 12V9.33333C2.66699 5.33333 5.33366 2.66667 9.33366 2.66667H22.667C26.667 2.66667 29.3337 5.33333 29.3337 9.33333V12" stroke="white" stroke-width="2" stroke-miterlimit="10" stroke-linecap="round" stroke-linejoin="round"/>
<path d="M2.66699 20V22.6667C2.66699 26.6667 5.33366 29.3333 9.33366 29.3333H22.667C26.667 29.3333 29.3337 26.6667 29.3337 22.6667V20" stroke="white" stroke-width="2" stroke-miterlimit="10" stroke-linecap="round" stroke-linejoin="round"/>
<path d="M8.93359 12.3467L16.0003 16.44L23.0136 12.3734" stroke="white" stroke-width="2" stroke-linecap="round" stroke-linejoin="round"/>
<path d="M16 23.6934V16.4267" stroke="white" stroke-width="2" stroke-linecap="round" stroke-linejoin="round"/>
<path d="M14.347 8.38667L10.0803 10.76C9.1203 11.2934 8.32031 12.64 8.32031 13.7467V18.2667C8.32031 19.3734 9.10697 20.72 10.0803 21.2534L14.347 23.6267C15.2536 24.1333 16.747 24.1333 17.667 23.6267L21.9336 21.2534C22.8936 20.72 23.6936 19.3734 23.6936 18.2667V13.7467C23.6936 12.64 22.907 11.2934 21.9336 10.76L17.667 8.38667C16.747 7.86667 15.2536 7.86667 14.347 8.38667Z" stroke="white" stroke-width="2" stroke-linecap="round" stroke-linejoin="round"/>
</svg>
