<svg width="32" height="32" viewBox="0 0 32 32" fill="none" xmlns="http://www.w3.org/2000/svg">
<path d="M12.334 6.33334H11.6673C8.7218 6.33334 6.33398 8.72116 6.33398 11.6667V12.3333" stroke="white" stroke-width="2" stroke-linecap="round" stroke-linejoin="round"/>
<path d="M12.334 25.6667H11.6673C8.7218 25.6667 6.33398 23.2788 6.33398 20.3333V19.6667" stroke="white" stroke-width="2" stroke-linecap="round" stroke-linejoin="round"/>
<path d="M19.666 6.33334H20.3327C23.2781 6.33334 25.666 8.72116 25.666 11.6667V12.3333" stroke="white" stroke-width="2" stroke-linecap="round" stroke-linejoin="round"/>
<path d="M19.666 25.6667H20.3327C23.2781 25.6667 25.666 23.2788 25.666 20.3333V19.6667" stroke="white" stroke-width="2" stroke-linecap="round" stroke-linejoin="round"/>
<path d="M13.9993 13.3333C13.9993 13.7015 13.7008 14 13.3327 14C12.9645 14 12.666 13.7015 12.666 13.3333C12.666 12.9651 12.9645 12.6667 13.3327 12.6667C13.7008 12.6667 13.9993 12.9651 13.9993 13.3333Z" stroke="white" stroke-width="2" stroke-linecap="round" stroke-linejoin="round"/>
<path d="M19.3333 13.3333C19.3333 13.7015 19.0348 14 18.6667 14C18.2985 14 18 13.7015 18 13.3333C18 12.9651 18.2985 12.6667 18.6667 12.6667C19.0348 12.6667 19.3333 12.9651 19.3333 13.3333Z" stroke="white" stroke-width="2" stroke-linecap="round" stroke-linejoin="round"/>
<path d="M11.666 17C11.666 17 11.9993 20.3333 15.9993 20.3333C19.9993 20.3333 20.3327 17 20.3327 17" stroke="white" stroke-width="2" stroke-linecap="round" stroke-linejoin="round"/>
</svg>
