<svg width="32" height="32" viewBox="0 0 32 32" fill="none" xmlns="http://www.w3.org/2000/svg">
<path d="M20.7732 16C20.7732 18.64 18.6399 20.7733 15.9999 20.7733C13.3599 20.7733 11.2266 18.64 11.2266 16C11.2266 13.36 13.3599 11.2267 15.9999 11.2267C18.6399 11.2267 20.7732 13.36 20.7732 16Z" stroke="white" stroke-width="2" stroke-linecap="round" stroke-linejoin="round"/>
<path d="M15.9998 27.0267C20.7065 27.0267 25.0931 24.2533 28.1465 19.4533C29.3465 17.5733 29.3465 14.4133 28.1465 12.5333C25.0931 7.73332 20.7065 4.95999 15.9998 4.95999C11.2931 4.95999 6.90646 7.73332 3.85312 12.5333C2.65312 14.4133 2.65312 17.5733 3.85312 19.4533C6.90646 24.2533 11.2931 27.0267 15.9998 27.0267Z" stroke="white" stroke-width="2" stroke-linecap="round" stroke-linejoin="round"/>
</svg>
