<svg width="32" height="32" viewBox="0 0 32 32" fill="none" xmlns="http://www.w3.org/2000/svg">
<path d="M16.0003 30.3734C15.0803 30.3734 14.2137 29.9067 13.6003 29.0934L11.6003 26.4267C11.5603 26.3734 11.4003 26.3066 11.3337 26.2933H10.667C5.10699 26.2933 1.66699 24.7866 1.66699 17.2933V10.6266C1.66699 4.73331 4.77366 1.62665 10.667 1.62665H21.3337C27.227 1.62665 30.3337 4.73331 30.3337 10.6266V17.2933C30.3337 23.1866 27.227 26.2933 21.3337 26.2933H20.667C20.5603 26.2933 20.467 26.3467 20.4003 26.4267L18.4003 29.0934C17.787 29.9067 16.9203 30.3734 16.0003 30.3734ZM10.667 3.62665C5.89366 3.62665 3.66699 5.85331 3.66699 10.6266V17.2933C3.66699 23.32 5.73366 24.2933 10.667 24.2933H11.3337C12.0137 24.2933 12.787 24.68 13.2003 25.2267L15.2003 27.8933C15.667 28.5067 16.3337 28.5067 16.8003 27.8933L18.8003 25.2267C19.2403 24.64 19.9337 24.2933 20.667 24.2933H21.3337C26.107 24.2933 28.3337 22.0666 28.3337 17.2933V10.6266C28.3337 5.85331 26.107 3.62665 21.3337 3.62665H10.667Z" fill="white"/>
<path d="M10.6663 17.9332C10.4129 17.9332 10.1596 17.8399 9.9596 17.6399L7.29293 14.9732C6.90626 14.5865 6.90626 13.9465 7.29293 13.5599L9.9596 10.8932C10.3463 10.5065 10.9863 10.5065 11.3729 10.8932C11.7596 11.2799 11.7596 11.9199 11.3729 12.3065L9.41292 14.2666L11.3729 16.2265C11.7596 16.6132 11.7596 17.2532 11.3729 17.6399C11.1729 17.8399 10.9196 17.9332 10.6663 17.9332Z" fill="white"/>
<path d="M21.3336 17.9332C21.0802 17.9332 20.8269 17.8399 20.6269 17.6399C20.2402 17.2532 20.2402 16.6132 20.6269 16.2265L22.5869 14.2666L20.6269 12.3065C20.2402 11.9199 20.2402 11.2799 20.6269 10.8932C21.0136 10.5065 21.6536 10.5065 22.0402 10.8932L24.7069 13.5599C25.0936 13.9465 25.0936 14.5865 24.7069 14.9732L22.0402 17.6399C21.8402 17.8399 21.5869 17.9332 21.3336 17.9332Z" fill="white"/>
<path d="M14.6668 18.3733C14.5335 18.3733 14.4002 18.3466 14.2668 18.2933C13.7602 18.0799 13.5201 17.4933 13.7468 16.9733L16.4135 10.7466C16.6268 10.24 17.2135 9.99995 17.7335 10.2266C18.2401 10.4399 18.4802 11.0266 18.2535 11.5466L15.5868 17.7733C15.4268 18.1467 15.0535 18.3733 14.6668 18.3733Z" fill="white"/>
</svg>
