<svg width="20" height="20" viewBox="0 0 20 20" fill="none" xmlns="http://www.w3.org/2000/svg">
<path d="M10 20C15.5229 20 20 15.5229 20 10C20 4.47716 15.5229 0 10 0C4.47716 0 0 4.47716 0 10C0 15.5229 4.47716 20 10 20Z" fill="#6DA544"/>
<path d="M10.0001 3.91309L18.2609 10L10.0001 16.0869L1.73926 10L10.0001 3.91309Z" fill="#FFDA44"/>
<path d="M9.99981 13.4782C11.9209 13.4782 13.4781 11.921 13.4781 9.99996C13.4781 8.07898 11.9209 6.52173 9.99981 6.52173C8.07878 6.52173 6.52148 8.07898 6.52148 9.99996C6.52148 11.921 8.07878 13.4782 9.99981 13.4782Z" fill="#F0F0F0"/>
<path d="M8.26046 9.78247C7.65562 9.78247 7.07192 9.87446 6.52246 10.0452C6.54679 11.9451 8.09383 13.4781 9.99961 13.4781C11.178 13.4781 12.2188 12.8916 12.848 11.995C11.7715 10.6475 10.1153 9.78247 8.26046 9.78247Z" fill="#0052B4"/>
<path d="M13.4129 10.6664C13.4548 10.4506 13.4773 10.228 13.4773 9.99997C13.4773 8.07895 11.9201 6.52173 9.9991 6.52173C8.56572 6.52173 7.33523 7.38895 6.80273 8.62715C7.27345 8.52962 7.76079 8.47825 8.25998 8.47825C10.2802 8.47821 12.1078 9.31797 13.4129 10.6664Z" fill="#0052B4"/>
</svg>
